<?xml version="1.0"?>
<svg width="640" height="512" xmlns="http://www.w3.org/2000/svg" xmlns:svg="http://www.w3.org/2000/svg">
 <!--! Font Awesome Pro 6.4.2 by @fontawesome - https://fontawesome.com License - https://fontawesome.com/license (Commercial License) Copyright 2023 Fonticons, Inc. -->
 <g class="layer">
  <title>Layer 1</title>
  <path d="m0,32c0,-17.7 14.3,-32 32,-32l16,0c44.2,0 80,35.8 80,80l0,288c0,8.8 7.2,16 16,16l464,0c17.7,0 32,14.3 32,32s-14.3,32 -32,32l-66.7,0c1.8,5 2.7,10.4 2.7,16c0,26.5 -21.5,48 -48,48s-48,-21.5 -48,-48c0,-5.6 1,-11 2.7,-16l-197.4,0c1.8,5 2.7,10.4 2.7,16c0,26.5 -21.5,48 -48,48s-48,-21.5 -48,-48c0,-5.6 1,-11 2.7,-16l-18.7,0c-44.2,0 -80,-35.8 -80,-80l0,-288c0,-8.8 -7.2,-16 -16,-16l-16,0c-17.7,0 -32,-14.3 -32,-32zm432,64l0,-40c0,-4.4 -3.6,-8 -8,-8l-80,0c-4.4,0 -8,3.6 -8,8l0,40l96,0zm-144,0l0,-40c0,-30.9 25.1,-56 56,-56l80,0c30.9,0 56,25.1 56,56l0,40l0,224l-192,0l0,-224zm224,224l0,-224l16,0c26.5,0 48,21.5 48,48l0,128c0,26.5 -21.5,48 -48,48l-16,0zm-272,-224l16,0l0,224l-16,0c-26.5,0 -48,-21.5 -48,-48l0,-128c0,-26.5 21.5,-48 48,-48z" fill="#ff0000" id="svg_1"/>
 </g>
</svg>