<?xml version="1.0"?>
<svg width="640" height="512" xmlns="http://www.w3.org/2000/svg" xmlns:svg="http://www.w3.org/2000/svg">
 <!--! Font Awesome Pro 6.4.2 by @fontawesome - https://fontawesome.com License - https://fontawesome.com/license (Commercial License) Copyright 2023 Fonticons, Inc. -->
 <g class="layer">
  <title>Layer 1</title>
  <path d="m381,114.9l-194.9,-73.1c-16.7,-6.2 -35.2,-5.3 -51.1,2.7l-45.9,22.9c-11.1,5.6 -11.9,21.1 -1.5,27.8l146.9,94.5l-98.5,50.3l-58.2,-25.9c-8.7,-3.9 -18.8,-3.7 -27.3,0.6l-32.2,16.1c-9.3,4.7 -11.8,16.8 -5,24.7l73.1,85.3c6.1,7.1 15,11.2 24.3,11.2l137.7,0c5,0 9.9,-1.2 14.3,-3.4l272.9,-136.4c46.5,-23.3 82.5,-63.3 100.8,-112c9.5,-25.2 -9.2,-52.2 -36.2,-52.2l-57.4,0c-20.2,0 -40.2,4.8 -58.2,14l-103.6,52.9zm-381,365.1c0,17.7 14.3,32 32,32l576,0c17.7,0 32,-14.3 32,-32s-14.3,-32 -32,-32l-576,0c-17.7,0 -32,14.3 -32,32z" fill="#ff0000" id="svg_1"/>
 </g>
</svg>